<?xml version="1.0" encoding="UTF-8" standalone="no"?>
<!DOCTYPE svg PUBLIC "-//W3C//DTD SVG 1.1//EN"
 "http://www.w3.org/Graphics/SVG/1.1/DTD/svg11.dtd">
<!-- Generated by graphviz version 2.43.0 (0)
 -->
<!-- Title: workflow Pages: 1 -->
<svg width="521pt" height="226pt"
 viewBox="0.00 0.00 521.00 226.25" xmlns="http://www.w3.org/2000/svg" xmlns:xlink="http://www.w3.org/1999/xlink">
<g id="graph0" class="graph" transform="scale(1 1) rotate(0) translate(4 222.25)">
<title>workflow</title>
<polygon fill="white" stroke="transparent" points="-4,4 -4,-222.25 517,-222.25 517,4 -4,4"/>
<!-- place_2a8fa2ab2ea7b9b1449f1e9a529833ad5230899e -->
<g id="node1" class="node">
<title>place_2a8fa2ab2ea7b9b1449f1e9a529833ad5230899e</title>
<ellipse fill="lightblue" stroke="#333333" cx="36" cy="-82.25" rx="36" ry="36"/>
<text text-anchor="middle" x="36" y="-80.05" font-family="Arial" font-size="9.00">In function</text>
</g>
<!-- place_8715c95f52e20552633be9d68ca05aa648c40a9d -->
<g id="node2" class="node">
<title>place_8715c95f52e20552633be9d68ca05aa648c40a9d</title>
<ellipse fill="none" stroke="#333333" cx="181" cy="-182.25" rx="36" ry="36"/>
<text text-anchor="middle" x="181" y="-180.05" font-family="Arial" font-size="9.00">Spare</text>
</g>
<!-- place_2a8fa2ab2ea7b9b1449f1e9a529833ad5230899e&#45;&gt;place_8715c95f52e20552633be9d68ca05aa648c40a9d -->
<g id="edge3" class="edge">
<title>place_2a8fa2ab2ea7b9b1449f1e9a529833ad5230899e&#45;&gt;place_8715c95f52e20552633be9d68ca05aa648c40a9d</title>
<path fill="none" stroke="#333333" d="M52.96,-114.31C61.94,-129.35 74.48,-146.33 90,-157.25 104.66,-167.57 123.45,-173.63 140.06,-177.2"/>
<polygon fill="#333333" stroke="#333333" points="139.89,-178.95 145.14,-178.23 140.58,-175.52 139.89,-178.95"/>
<text text-anchor="middle" x="108.5" y="-176.05" font-family="Arial" font-size="9.00">Stand&#45;by</text>
</g>
<!-- place_23f785b75e3326625919fa011426127514f9f122 -->
<g id="node3" class="node">
<title>place_23f785b75e3326625919fa011426127514f9f122</title>
<ellipse fill="none" stroke="#333333" cx="181" cy="-92.25" rx="36" ry="36"/>
<text text-anchor="middle" x="181" y="-90.05" font-family="Arial" font-size="9.00">Under repair</text>
</g>
<!-- place_2a8fa2ab2ea7b9b1449f1e9a529833ad5230899e&#45;&gt;place_23f785b75e3326625919fa011426127514f9f122 -->
<g id="edge4" class="edge">
<title>place_2a8fa2ab2ea7b9b1449f1e9a529833ad5230899e&#45;&gt;place_23f785b75e3326625919fa011426127514f9f122</title>
<path fill="none" stroke="#333333" d="M71.98,-84.69C92.5,-86.13 118.49,-87.94 139.84,-89.44"/>
<polygon fill="#333333" stroke="#333333" points="139.77,-91.19 144.88,-89.79 140.02,-87.7 139.77,-91.19"/>
<text text-anchor="middle" x="108.5" y="-91.05" font-family="Arial" font-size="9.00">Repair</text>
</g>
<!-- place_3fcdcb3d0e685f2886c129d8e7bb3a4c8cd8bd25 -->
<g id="node4" class="node">
<title>place_3fcdcb3d0e685f2886c129d8e7bb3a4c8cd8bd25</title>
<ellipse fill="none" stroke="#333333" cx="344" cy="-69.25" rx="36" ry="36"/>
<text text-anchor="middle" x="344" y="-67.05" font-family="Arial" font-size="9.00">Waste</text>
</g>
<!-- place_2a8fa2ab2ea7b9b1449f1e9a529833ad5230899e&#45;&gt;place_3fcdcb3d0e685f2886c129d8e7bb3a4c8cd8bd25 -->
<g id="edge5" class="edge">
<title>place_2a8fa2ab2ea7b9b1449f1e9a529833ad5230899e&#45;&gt;place_3fcdcb3d0e685f2886c129d8e7bb3a4c8cd8bd25</title>
<path fill="none" stroke="#333333" d="M68.09,-65.42C89.12,-55.03 117.91,-42.66 145,-37.25 200.45,-26.16 265.23,-42.01 305.19,-55.09"/>
<polygon fill="#333333" stroke="#333333" points="304.64,-56.75 309.93,-56.67 305.74,-53.43 304.64,-56.75"/>
<text text-anchor="middle" x="181" y="-40.05" font-family="Arial" font-size="9.00">Remove</text>
</g>
<!-- place_40b3055e1cab09c491bc628aa7bb0fd165b3d0e5 -->
<g id="node5" class="node">
<title>place_40b3055e1cab09c491bc628aa7bb0fd165b3d0e5</title>
<ellipse fill="none" stroke="#333333" cx="477" cy="-69.25" rx="36" ry="36"/>
<text text-anchor="middle" x="477" y="-67.05" font-family="Arial" font-size="9.00">Destruction</text>
</g>
<!-- place_2a8fa2ab2ea7b9b1449f1e9a529833ad5230899e&#45;&gt;place_40b3055e1cab09c491bc628aa7bb0fd165b3d0e5 -->
<g id="edge6" class="edge">
<title>place_2a8fa2ab2ea7b9b1449f1e9a529833ad5230899e&#45;&gt;place_40b3055e1cab09c491bc628aa7bb0fd165b3d0e5</title>
<path fill="none" stroke="#333333" d="M61.39,-56.6C69.77,-49.22 79.66,-41.92 90,-37.25 207.58,15.86 254.23,4.5 380,-24.25 401.16,-29.08 423.19,-39.01 440.81,-48.31"/>
<polygon fill="#333333" stroke="#333333" points="440.42,-50.09 445.65,-50.92 442.08,-47.01 440.42,-50.09"/>
<text text-anchor="middle" x="262.5" y="-8.05" font-family="Arial" font-size="9.00">Destuct</text>
</g>
<!-- place_8715c95f52e20552633be9d68ca05aa648c40a9d&#45;&gt;place_2a8fa2ab2ea7b9b1449f1e9a529833ad5230899e -->
<g id="edge1" class="edge">
<title>place_8715c95f52e20552633be9d68ca05aa648c40a9d&#45;&gt;place_2a8fa2ab2ea7b9b1449f1e9a529833ad5230899e</title>
<path fill="none" stroke="#333333" d="M151.1,-162.04C127.66,-145.65 94.61,-122.53 70.1,-105.39"/>
<polygon fill="#333333" stroke="#333333" points="71.04,-103.91 65.94,-102.48 69.03,-106.78 71.04,-103.91"/>
<text text-anchor="middle" x="108.5" y="-146.05" font-family="Arial" font-size="9.00">Use</text>
</g>
<!-- place_8715c95f52e20552633be9d68ca05aa648c40a9d&#45;&gt;place_40b3055e1cab09c491bc628aa7bb0fd165b3d0e5 -->
<g id="edge2" class="edge">
<title>place_8715c95f52e20552633be9d68ca05aa648c40a9d&#45;&gt;place_40b3055e1cab09c491bc628aa7bb0fd165b3d0e5</title>
<path fill="none" stroke="#333333" d="M215.69,-171.9C255.41,-159.41 323.23,-137.22 380,-114.25 399.96,-106.17 421.73,-96.07 439.48,-87.49"/>
<polygon fill="#333333" stroke="#333333" points="440.65,-88.87 444.38,-85.12 439.12,-85.73 440.65,-88.87"/>
<text text-anchor="middle" x="344" y="-143.05" font-family="Arial" font-size="9.00">Dispose</text>
</g>
<!-- place_23f785b75e3326625919fa011426127514f9f122&#45;&gt;place_2a8fa2ab2ea7b9b1449f1e9a529833ad5230899e -->
<g id="edge7" class="edge">
<title>place_23f785b75e3326625919fa011426127514f9f122&#45;&gt;place_2a8fa2ab2ea7b9b1449f1e9a529833ad5230899e</title>
<path fill="none" stroke="#333333" d="M148.07,-77.37C141.25,-74.83 134,-72.58 127,-71.25 110.47,-68.09 92.05,-69.49 76.2,-72.19"/>
<polygon fill="#333333" stroke="#333333" points="75.53,-70.53 70.93,-73.15 76.16,-73.97 75.53,-70.53"/>
<text text-anchor="middle" x="108.5" y="-74.05" font-family="Arial" font-size="9.00">Fix</text>
</g>
<!-- place_23f785b75e3326625919fa011426127514f9f122&#45;&gt;place_3fcdcb3d0e685f2886c129d8e7bb3a4c8cd8bd25 -->
<g id="edge8" class="edge">
<title>place_23f785b75e3326625919fa011426127514f9f122&#45;&gt;place_3fcdcb3d0e685f2886c129d8e7bb3a4c8cd8bd25</title>
<path fill="none" stroke="#333333" d="M216.93,-87.26C242.25,-83.64 276.53,-78.74 302.96,-74.97"/>
<polygon fill="#333333" stroke="#333333" points="303.43,-76.67 308.13,-74.23 302.94,-73.2 303.43,-76.67"/>
<text text-anchor="middle" x="262.5" y="-86.05" font-family="Arial" font-size="9.00">Unrepairable</text>
</g>
<!-- place_3fcdcb3d0e685f2886c129d8e7bb3a4c8cd8bd25&#45;&gt;place_40b3055e1cab09c491bc628aa7bb0fd165b3d0e5 -->
<g id="edge9" class="edge">
<title>place_3fcdcb3d0e685f2886c129d8e7bb3a4c8cd8bd25&#45;&gt;place_40b3055e1cab09c491bc628aa7bb0fd165b3d0e5</title>
<path fill="none" stroke="#333333" d="M380.11,-69.25C397.14,-69.25 417.7,-69.25 435.4,-69.25"/>
<polygon fill="#333333" stroke="#333333" points="435.8,-71 440.8,-69.25 435.8,-67.5 435.8,-71"/>
<text text-anchor="middle" x="410.5" y="-72.05" font-family="Arial" font-size="9.00">Dump</text>
</g>
</g>
</svg>
